# xmcd
#
# Track frame offsets: 
#        150
#        11275
#        28319
#        39880
#        49208
#        61336
#        71995
#        98331
#        118322
#        132160
#        169575
#        184296
#        197714
#        202093
#        217689
#        239235
#        262412
#        274148
#        286673
#        305486
#
# Disc length: 4407 seconds
#
# Revision: 1
# Processed by: cddbd v1.5.2PL0 Copyright (c) Steve Scherf et al.
# Submitted via: ExactAudioCopy v0.90b4
#
DISCID=32113514
DTITLE=Various Artist - 40 FAMOUS BLUES SONGS
DYEAR=1900
DGENRE=Blues
TTITLE0=JOHN LEE HOOKER/BOOM,BOOM
TTITLE1=NINA SIMONE/SEA LINE WOMAN
TTITLE2=B.B.KING/EVERY DAY(I HAVE THE BLUES)
TTITLE3=CANNED HEAT/BIG ROAD BLUES
TTITLE4=JOHN MAYALL/LOST AND GONE
TTITLE5=RAY CHARLES/I´M MOVIN´ON
TTITLE6=BIG MAMA THORNTON/LITTLE RED ROOSTER
TTITLE7=ETTA JAMES/I´D RATHER GO BLIND
TTITLE8=ERIC CLAPTON/DRAGGIN´ MY TAIL
TTITLE9=EDDIE WILSONS BLUES BAND and FRIENDS/HOOCHY COOCHY MAN
TTITLE10=BESSIE SMITH/MEAN OLD BED BUG BLUES
TTITLE11=LIGHTNIN´HOPKINS/MOJO HAND
TTITLE12=MISSISSIPPI  JOHN HURT/C-H-I-C-K-E-N BLUES
TTITLE13=TINA TURNER/IF THIS WAS OUR LAST TIME
TTITLE14=BROWNIE McGHEE and SONNY TERRY/BLUES FOR THE LOWLANDS
TTITLE15=ETTA JAMES/STORMY MONDAY
TTITLE16=DINAH WASHINGTON/SHOO SHOO BABY
TTITLE17=LIGHTNING SLIM/ROOSTER BLUES
TTITLE18=MUDDY WATERS/I GOT MY MOJO WORKING
TTITLE19=IKE and TINA TURNER/ALL I CAN DO IS CRY
EXTD=
EXTT0=
EXTT1=
EXTT2=
EXTT3=
EXTT4=
EXTT5=
EXTT6=
EXTT7=
EXTT8=
EXTT9=
EXTT10=
EXTT11=
EXTT12=
EXTT13=
EXTT14=
EXTT15=
EXTT16=
EXTT17=
EXTT18=
EXTT19=
PLAYORDER=
